<?xml version="1.0" encoding="UTF-8" standalone="no"?>
<svg
   version="1.1"
   x="0px"
   y="0px"
   viewBox="-252 358.9 59.599996 59.599998"
   xml:space="preserve"
   id="svg2"
   sodipodi:docname="noun-arrows-left-712896.svg"
   width="59.599998"
   height="59.599998"
   inkscape:version="1.3 (0e150ed, 2023-07-21)"
   xmlns:inkscape="http://www.inkscape.org/namespaces/inkscape"
   xmlns:sodipodi="http://sodipodi.sourceforge.net/DTD/sodipodi-0.dtd"
   xmlns="http://www.w3.org/2000/svg"
   xmlns:svg="http://www.w3.org/2000/svg"><defs
     id="defs2" /><sodipodi:namedview
     id="namedview2"
     pagecolor="#505050"
     bordercolor="#eeeeee"
     borderopacity="1"
     inkscape:showpageshadow="0"
     inkscape:pageopacity="0"
     inkscape:pagecheckerboard="0"
     inkscape:deskcolor="#505050"
     inkscape:zoom="4.2720563"
     inkscape:cx="13.108441"
     inkscape:cy="46.113624"
     inkscape:window-width="1864"
     inkscape:window-height="1027"
     inkscape:window-x="56"
     inkscape:window-y="25"
     inkscape:window-maximized="0"
     inkscape:current-layer="svg2" /><path
     d="m -222.2,418.5 c 16.5,0 29.8,-13.4 29.8,-29.8 0,-16.4 -13.4,-29.8 -29.8,-29.8 -16.4,0 -29.8,13.4 -29.8,29.8 0,16.4 13.3,29.8 29.8,29.8 z m 11.9,-45.7 c 3.7,-3.7 9.3,2 5.6,5.6 -3.4,3.4 -6.7,6.7 -10.1,10.1 3.4,3.4 6.9,6.9 10.3,10.3 3.7,3.7 -2,9.3 -5.6,5.6 -4.3,-4.3 -8.7,-8.7 -13,-13 -0.4,-0.4 -0.7,-0.9 -0.9,-1.3 -0.1,0 -0.1,0 -0.1,-0.1 -0.5,-1.3 -0.5,-3 0.8,-4.3 4.3,-4.2 8.7,-8.6 13,-12.9 z m -31.8,13 c 4.3,-4.3 8.7,-8.7 13,-13 3.7,-3.7 9.3,2 5.6,5.6 -3.4,3.4 -6.7,6.7 -10.1,10.1 3.4,3.4 6.9,6.9 10.3,10.3 3.7,3.7 -2,9.3 -5.6,5.6 -4.3,-4.3 -8.7,-8.7 -13,-13 -0.4,-0.4 -0.7,-0.9 -0.9,-1.3 -0.1,0 -0.1,0 -0.1,-0.1 -0.5,-1.3 -0.5,-2.9 0.8,-4.2 z"
     id="path1" /></svg>
